inDegrees=yes
name=ik_s24_walk_orientation
DataType=double
version=3
OpenSimVersion=4.5
endheader
time	pelvis_tilt	pelvis_list	pelvis_rotation	pelvis_tx	pelvis_ty	pelvis_tz	hip_flexion_r	hip_adduction_r	hip_rotation_r	knee_angle_r	knee_angle_r_beta	ankle_angle_r	subtalar_angle_r	mtp_angle_r	hip_flexion_l	hip_adduction_l	hip_rotation_l	knee_angle_l	knee_angle_l_beta	ankle_angle_l	subtalar_angle_l	mtp_angle_l	lumbar_extension	lumbar_bending	lumbar_rotation	arm_flex_r	arm_add_r	arm_rot_r	elbow_flex_r	pro_sup_r	wrist_flex_r	wrist_dev_r	arm_flex_l	arm_add_l	arm_rot_l	elbow_flex_l	pro_sup_l	wrist_flex_l	wrist_dev_l
0	-4.254707121625634	0.307575235476888	13.01362876382777	0	0.93	0	3.969620614868649	-2.294309766676802	0.2538326740119061	0.5987024752626765	0.01044932943317361	-0.2767508388356098	0	0	4.427869332915875	1.23452505363258	0.0256891115960053	0.7528810084719607	0.01314025247357104	-0.2767508388314712	0	0	0	0	-8.87534903033212e-12	0	0	86.4223112279961	2.675261419165272e-40	4.080802429083427e-39	0	0	0	0	89.7796379972999	0	0	0	0
0.0192307692307692	-0.003800081044396813	0.002265008219138267	12.79070315203514	0	0.93	0	0.3718102269107788	-0.02738998894742746	-0.1010308320408185	0.7268491642061403	0.01268591108076607	-0.3345705760890018	0	0	0.3818271894634798	-0.01848940313274227	-0.1047538924769317	0.7312621975357307	0.01276293304236767	-0.3345705760847846	0	0	0	0	-8.87534903033212e-12	0	0	89.61852715378339	5.386264294499475e-39	7.212342737840669e-39	0	0	0	0	89.60336233543796	0	0	0	0
0.0384615384615385	0.7873866242159427	-9.257561397362281	7.289902766925497	0	0.93	0	2.734479387817651	6.797504764518114	5.483346707743721	0.2106647143771233	0.003676792883654237	-1.574736204977663	0	0	29.61261504946411	29.99425448127366	-39.92236748723752	13.84925110484054	0.2417150307149298	-1.574736204974119	0	0	0	0	-8.87534903033212e-12	0	0	89.97142526157842	4.117078994642365e-38	0	0	0	0	0	84.38034540224388	4.756350236242996e-39	5.338999464475429e-38	0	0
0.0576923076923077	4.328725294492879	-10.08308601082152	9.128540570680595	0	0.93	-1.152626246097343e-26	-1.394933801118557	9.153681401043029	4.241988175392693	0.3571580482211399	0.006233583891455568	-1.825109171669623	-4.400836830249249e-22	7.646143964334124e-26	20.43599912959302	29.99348661545551	-34.01382064147273	10.66211522433268	0.1860890158916192	-1.825109171666335	2.601787556468452e-22	2.334266173547283e-26	-2.111152611115631e-26	-4.105277066473404e-17	-8.875362884146194e-12	-1.201597480819231e-16	-9.406120986058578e-17	89.95990612156106	0	1.061160583401089e-14	2.415144200738318e-26	-1.013882062179669e-25	8.246134399492225e-18	-4.75739759420321e-19	65.36101280293849	3.668605800793201e-14	1.638761727326988e-14	-4.019263002342584e-26	-5.213083188200628e-27
0.0769230769230769	4.079882465856353	-10.20863784779564	8.2736850239442	0	0.93	0	-1.86342021640255	10.83386916842205	4.830872267637898	0.8975633653780464	0.01566543597112779	-1.879659803490893	0	0	26.1204413802691	29.9937122129617	-39.77330185745626	13.28108620694079	0.2317986825523218	-1.87965980348766	0	0	0	0	-8.87534903033212e-12	0	0	89.96775934280376	0	0	0	0	0	0	63.13049924676437	0	3.325412033132977e-39	0	0
0.0961538461538462	3.940567621621073	-10.42147739856773	8.487375023282741	0	0.93	0	-1.619756358064009	20.90643115518913	-13.75932580541791	36.06312590222795	0.6294202855551283	-2.492353355111784	0	0	27.73711792481921	29.9938074701193	-39.90244439719528	14.44025711720884	0.2520300315298389	-2.492353355109197	0	0	0	0	-8.87534903033212e-12	0	0	89.96754916215303	3.997844582454251e-45	0	0	0	0	0	62.11182755086678	2.713210854180466e-45	0	0	0
0.1153846153846154	3.538408680116329	-9.484155797270123	8.378448056708752	0	0.93	0	-1.837094958365654	19.52866236572126	-13.17285114222959	35.70536070690018	0.6231761049476182	-2.513134544716776	0	0	28.73329467316394	29.99309053890289	-39.62508909752332	15.22915924391168	0.2657989711167891	-2.513134544714214	0	0	0	0	-8.87534903033212e-12	0	0	89.96961946959868	0	0	0	0	0	0	60.70630968241996	7.00450175501059e-39	0	0	0
0.1346153846153846	3.789708171430067	-10.29941714506054	9.163536051112244	0	0.93	0	-2.186461854692215	20.41989960103124	-13.57266896320536	35.05091175969328	0.6117538160326472	-2.534530246805197	3.947959961221155e-19	-2.023080406023425e-22	26.83186713173443	29.99361915019678	-39.90744843592513	13.71837193067715	0.2394307582034876	-2.53453024683326	-2.002012744538401e-20	-2.642262334043892e-23	-4.041241970385942e-25	1.620430346763982e-20	-8.875349030332753e-12	1.423591525639429e-16	7.522865538623845e-17	89.96591328636332	2.089756113882546e-14	1.638317211341875e-15	1.431466754240349e-20	6.37435410535336e-21	4.750226156398414e-15	3.094117521686541e-14	60.79208047565982	0	0	-1.370381332927688e-20	3.563920093869137e-22
0.1538461538461539	3.819651847828537	-10.08554388982196	8.920874067060739	8.530300066943898e-37	0.93	-4.759425228043178e-25	-2.522246324869712	20.41531784100313	-13.11949582816607	34.98939763666745	0.6106801920493696	-2.5627080865668	1.926007378229656e-19	-8.603605930459584e-24	28.28239949892053	29.99354225788131	-39.91985112355075	14.80725962749187	0.2584354336973623	-2.562708086595308	-5.925631472377647e-20	2.019301819742291e-23	1.07101183592002e-23	-6.977933226783411e-15	-8.904812143413557e-12	-3.170003570425716e-14	-3.290450346152353e-14	89.9656284090027	0	0	-1.813398951475855e-20	7.330108453748183e-21	-2.342920513161778e-15	8.439160763407139e-15	60.62567077139261	5.04387665477391e-15	3.585330024031387e-15	-2.150709986031691e-20	-4.485308670100411e-20
0.1730769230769231	3.772974648021513	-9.226080176816135	8.480669314888379	0	0.93	0	-2.35056041654568	20.37478388064143	-12.64242773062534	35.27305641810199	0.6156309717375974	-2.572143058270555	0	0	28.37674638519397	29.99303119816085	-39.64258654911752	14.81403675024308	0.2585537168031826	-2.572143058298951	0	0	0	0	-8.87534903033212e-12	0	0	89.96864094267998	8.667856548034759e-40	2.624713144738903e-40	0	0	0	0	60.20764722539688	0	0	0	0
0.1923076923076923	3.82102059854451	-10.07292011791207	9.345927614307586	0	0.93	-4.357084122872952e-30	-2.356904813845851	20.35033060963595	-13.5305158651517	35.21911051404434	0.6146894380938263	-2.591010397440757	-1.625599997719789e-20	-3.649055221931425e-23	26.08687705215675	29.99367170488593	-39.92288857569465	13.22183428298998	0.2307645413912388	-2.591010397468914	5.368770201514078e-20	-2.760870140430067e-24	6.826101933712683e-27	-2.818427619801642e-23	-8.875349030332105e-12	2.075119671210857e-17	-8.079100873189521e-19	89.96395239656741	1.280203764933008e-14	0	3.425200955656748e-20	7.687762150702378e-20	-6.261120073792126e-15	-9.06609925873024e-15	61.12478065887898	0	0	1.74491384001912e-19	-2.089548430050695e-22
0.2115384615384615	3.551292593000961	-9.50199043727662	8.863164971627983	0	0.93	4.38796925735242e-34	-2.350724658561582	19.32790386654953	-13.02574949095476	35.55684731497318	0.6205840572751873	-2.611613377302376	-2.701816995714741e-16	-4.597525834622353e-17	26.95598324754471	29.99325354462605	-39.84581609325174	13.47053606498387	0.2351052063426093	-2.611613377330389	8.510880086705393e-16	1.560456120406808e-15	-6.022073263620765e-26	-7.462877851225522e-22	-8.875349030332209e-12	-1.144953326956475e-19	6.200624526830389e-17	89.96665526332902	0	0	-4.378582554393957e-17	-1.073338436908537e-18	-2.881491668322714e-14	-2.601543467465025e-14	59.97680963696846	9.642874029516777e-16	0	6.154129162430647e-18	-8.337315612660245e-20
